<svg width="58" height="58" viewBox="0 0 58 58" fill="none" xmlns="http://www.w3.org/2000/svg">
<mask id="path-1-inside-1" fill="white">
<path fill-rule="evenodd" clip-rule="evenodd" d="M33.5 0H24.5V18.1361L11.6759 5.31192L5.3119 11.6759L18.136 24.5H0V33.5H18.136L5.31188 46.3241L11.6758 52.6881L24.5 39.8639V58H33.5V39.864L46.3241 52.6881L52.688 46.3241L39.8639 33.5H58V24.5H39.8639L52.688 11.6759L46.3241 5.31192L33.5 18.136V0Z"/>
</mask>
<path d="M24.5 0V-2H22.5V0H24.5ZM33.5 0H35.5V-2H33.5V0ZM24.5 18.1361L23.0858 19.5503L26.5 22.9645V18.1361H24.5ZM11.6759 5.31192L13.0901 3.89771L11.6759 2.4835L10.2616 3.89771L11.6759 5.31192ZM5.3119 11.6759L3.89768 10.2617L2.48347 11.6759L3.89768 13.0901L5.3119 11.6759ZM18.136 24.5V26.5H22.9644L19.5502 23.0858L18.136 24.5ZM0 24.5V22.5H-2V24.5H0ZM0 33.5H-2V35.5H0V33.5ZM18.136 33.5L19.5502 34.9142L22.9644 31.5H18.136V33.5ZM5.31188 46.3241L3.89767 44.9099L2.48345 46.3241L3.89767 47.7383L5.31188 46.3241ZM11.6758 52.6881L10.2616 54.1023L11.6758 55.5165L13.0901 54.1023L11.6758 52.6881ZM24.5 39.8639H26.5V35.0355L23.0858 38.4497L24.5 39.8639ZM24.5 58H22.5V60H24.5V58ZM33.5 58V60H35.5V58H33.5ZM33.5 39.864L34.9142 38.4498L31.5 35.0356V39.864H33.5ZM46.3241 52.6881L44.9099 54.1023L46.3241 55.5165L47.7383 54.1023L46.3241 52.6881ZM52.688 46.3241L54.1023 47.7383L55.5165 46.3241L54.1023 44.9099L52.688 46.3241ZM39.8639 33.5V31.5H35.0355L38.4497 34.9142L39.8639 33.5ZM58 33.5V35.5H60V33.5H58ZM58 24.5H60V22.5H58V24.5ZM39.8639 24.5L38.4497 23.0858L35.0355 26.5H39.8639V24.5ZM52.688 11.6759L54.1022 13.0901L55.5165 11.6759L54.1022 10.2617L52.688 11.6759ZM46.3241 5.31192L47.7383 3.89771L46.3241 2.4835L44.9099 3.89771L46.3241 5.31192ZM33.5 18.136H31.5V22.9644L34.9142 19.5502L33.5 18.136ZM24.5 2H33.5V-2H24.5V2ZM26.5 18.1361V0H22.5V18.1361H26.5ZM10.2616 6.72614L23.0858 19.5503L25.9142 16.7219L13.0901 3.89771L10.2616 6.72614ZM6.72611 13.0901L13.0901 6.72614L10.2616 3.89771L3.89768 10.2617L6.72611 13.0901ZM19.5502 23.0858L6.72611 10.2617L3.89768 13.0901L16.7218 25.9142L19.5502 23.0858ZM0 26.5H18.136V22.5H0V26.5ZM2 33.5V24.5H-2V33.5H2ZM18.136 31.5H0V35.5H18.136V31.5ZM6.72609 47.7383L19.5502 34.9142L16.7218 32.0858L3.89767 44.9099L6.72609 47.7383ZM13.0901 51.2739L6.72609 44.9099L3.89767 47.7383L10.2616 54.1023L13.0901 51.2739ZM23.0858 38.4497L10.2616 51.2739L13.0901 54.1023L25.9142 41.2781L23.0858 38.4497ZM26.5 58V39.8639H22.5V58H26.5ZM33.5 56H24.5V60H33.5V56ZM31.5 39.864V58H35.5V39.864H31.5ZM47.7383 51.2739L34.9142 38.4498L32.0858 41.2782L44.9099 54.1023L47.7383 51.2739ZM51.2738 44.9099L44.9099 51.2739L47.7383 54.1023L54.1023 47.7383L51.2738 44.9099ZM38.4497 34.9142L51.2738 47.7383L54.1023 44.9099L41.2781 32.0858L38.4497 34.9142ZM58 31.5H39.8639V35.5H58V31.5ZM56 24.5V33.5H60V24.5H56ZM39.8639 26.5H58V22.5H39.8639V26.5ZM51.2738 10.2617L38.4497 23.0858L41.2781 25.9142L54.1022 13.0901L51.2738 10.2617ZM44.9099 6.72614L51.2738 13.0901L54.1022 10.2617L47.7383 3.89771L44.9099 6.72614ZM34.9142 19.5502L47.7383 6.72614L44.9099 3.89771L32.0858 16.7218L34.9142 19.5502ZM31.5 0V18.136H35.5V0H31.5Z" fill="#E9C6DD" mask="url(#path-1-inside-1)"/>
</svg>
